<svg viewBox="0 0 16 16" fill="none" xmlns="http://www.w3.org/2000/svg"><path fill-rule="evenodd" clip-rule="evenodd" d="M11.4666 1.13346C11.4666 1.50165 11.1682 1.80013 10.8 1.80013H9.7333H8.79997H3.86663C3.64572 1.80013 3.46663 1.97922 3.46663 2.20013V9.80013V11.4001V12.4668C3.46663 12.835 3.16816 13.1335 2.79997 13.1335C2.43178 13.1335 2.1333 12.835 2.1333 12.4668V12.3335V11.8001V1.2668C2.1333 0.824969 2.49147 0.466797 2.9333 0.466797H10.5333H10.6666H10.8H10.8C11.1682 0.466797 11.4666 0.765274 11.4666 1.13346ZM13.0666 2.8668C13.5084 2.8668 13.8666 3.22497 13.8666 3.6668V14.7335C13.8666 15.1753 13.5084 15.5335 13.0666 15.5335H5.33328C4.89146 15.5335 4.53328 15.1753 4.53328 14.7335V3.6668C4.53328 3.22497 4.89146 2.8668 5.33328 2.8668H13.0666ZM12.1333 4.20013C12.3542 4.20013 12.5333 4.37922 12.5333 4.60013V13.8001C12.5333 14.021 12.3542 14.2001 12.1333 14.2001H6.26662C6.0457 14.2001 5.86662 14.021 5.86662 13.8001V4.60013C5.86662 4.37922 6.0457 4.20013 6.26662 4.20013H12.1333Z" fill="royalblue"/></svg>
